<?xml version="1.0" encoding="UTF-8"?>
<svg id="Layer_2" data-name="Layer 2" xmlns="http://www.w3.org/2000/svg" viewBox="0 0 543.81 542.92">
  <defs>
    <style>
      .cls-1 {
        fill: #fff;
      }

      .cls-2 {
        fill: #1d4961;
      }

      .cls-3 {
        fill: #3d8a82;
      }

      .cls-4 {
        fill: #3c8a83;
      }

      .cls-5 {
        fill: #1b485f;
      }

      .cls-6 {
        fill: #6fab95;
      }

      .cls-7 {
        fill: #71ae97;
      }
    </style>
  </defs>
  <g id="svg">
    <g>
      <circle class="cls-1" cx="271.62" cy="271.06" r="271.06"/>
      <g>
        <path class="cls-6" d="m291.25,185.89c.49-2.07,6.77-.08,15.8-3.39,12.75-4.68,12-12.54,24.98-20.55,13.14-8.11,18.06-2.45,30.75-11.87,2.88-2.14,9.48-7.04,14.52-15.68,5.16-8.85,5.73-16.56,8.11-16.53,2.25.03,4.03,6.91,4.91,11.65,2.08,11.23,1.36,29.89-10.68,46.2-13.33,18.06-35.5,26.4-54.66,25-18.09-1.31-34.55-11.38-33.74-14.83Z"/>
        <path class="cls-3" d="m244.54,122.99c.44-1.82,8.51,1.45,19.21-2.85,12.12-4.86,12.65-13.42,24.37-21.63,11.99-8.39,18.33-4.26,30.68-10.24,8.58-4.16,19.59-12.97,28.14-33.96.2-.5.9-.52,1.12-.03,2.89,6.53,8.34,21.79,3.82,39.68-6.14,24.28-27.48,40.81-49.25,45.3-31.2,6.43-58.94-12.78-58.09-16.27Z"/>
        <path class="cls-4" d="m47.35,118.32c.48-.71,1.27-1.15,2.13-1.18,11.08-.44,26.48.5,42.68,7.28,23.16,9.69,24.85,21.65,46.56,32.88,29.71,15.38,39.64-.32,66.69,13.74,27.63,14.35,22.12,33.24,51.17,47.45,23.27,11.38,30.8.98,52.43,12.9,28.29,15.6,27.36,39.77,44.38,40.9,17.49,1.16,20.5-24.23,53.76-38.4,21.35-9.1,24.34-.45,43.2-10.41,21.62-11.42,24.3-26.29,47.39-37.05,11.18-5.21,21.55-6.85,28.45-7.42.54-.04,1.03.27,1.22.77,7.12,19.4,15.29,48.39,16.3,84.06,2.88,101.38-54.5,171.23-63.85,182.26-9.84,11.61-83.09,95.16-204.32,96.56-98.03,1.13-192.93-51.85-242.02-140.62C-15.76,312.92-10.33,203.13,47.35,118.32Z"/>
        <path class="cls-7" d="m7.92,336.4c9.35-3.32,21.23-7.9,34.7-14.04,8.13-3.7,17.79-8.19,30.55-15.39,20.86-11.78,32.23-21.15,48.98-29.53,54.05-27.04,110.64-17.05,120.85-15.26,23.38,4.1,47.05,16.43,94.37,41.11,47.89,24.97,71.46,41.98,107.18,46.2,21.62,2.55,39.7.4,51.24-1.7-8.79,7.15-22.91,16.94-42.52,23.84-2.24.79-7.41,2.55-14.33,4.21-4.83,1.16-24.23,5.58-53.33,3.42-17.1-1.27-29.94-4.24-33.66-5.14-16.85-4.09-20.53-7.35-47.37-15.84-13.36-4.22-20.03-6.33-29.14-8.26-21.42-4.54-38.47-4.32-48.36-4.13-39.53.75-71.18,11.26-82.31,15.26-47.5,17.08-79.88,44.56-97.87,62.59-7.58-10.91-15.96-24.77-23.48-41.56-7.63-17.03-12.42-32.71-15.51-45.77Z"/>
        <path class="cls-5" d="m72.16,455.3c11.97-12.89,31.96-31.29,61.09-45.53,14.04-6.86,38.51-16.78,74.62-20.34,92.16-9.08,126.04,36.96,201.24,32.1,26.9-1.74,66.19-10.45,112.8-44.89,5.15-12,8.62-22.38,10.96-30.34.92-3.13,2.34-8.16,3.81-14.44,2.16-9.18,3.54-17.17,4.45-23.44-2.6,2.58-6.28,6.19-10.8,10.39,0,0-8,7.54-15.63,13.86-17.24,14.3-37.05,30.73-64.05,39.89-8.41,2.85-26.19,7.95-58.61,6.68-57.24-2.25-71.09-20.84-119.46-29.56-64.9-11.7-125.66,9.06-147.43,18.86-18.91,8.51-48.74,24.79-78.23,55.18,3.72,5.42,7.9,11.1,12.59,16.93,4.28,5.32,8.53,10.19,12.66,14.64Z"/>
        <path class="cls-1" d="m72.16,455.3c12.94-13.84,35.45-34.37,68.73-49.13,12.06-5.35,38.26-15.59,77.87-17.85,85.22-4.87,112.55,33.93,179.03,33.85,29.97-.04,72.53-8.06,124.11-45.52-4.34,10.72-10.16,22.99-18,35.99-7.43,12.33-15.12,22.73-22.22,31.28-18.52,7.96-34.81,11.72-46.53,13.64-27.82,4.56-49.82,2.06-62.77.42-57.34-7.23-59.94-22.17-106.76-28.82-59.05-8.39-107.61,11.02-107.61,11.02-14.07,5.81-36.8,17.31-59.57,39.89-4.79-4.03-9.72-8.42-14.73-13.19-4.11-3.92-7.96-7.79-11.55-11.58Z"/>
        <path class="cls-2" d="m98.45,480.07c10.1-9.84,26.83-23.99,50.6-35.23,10.52-4.97,32.86-14.31,65.34-17.38,85.8-8.09,121.16,38.78,202.84,32.21,26.8-2.15,48.8-9.27,64.47-15.76-1.64,1.98-3.88,4.6-6.6,7.61-6.58,7.27-11.99,12.34-14.75,14.93-10.77,10.06-21.37,18.18-28.11,23.1-15.02,10.97-37.03,24.79-65.8,35.77-25.09,9.57-45.49,13.23-52.66,14.4-14.36,2.35-58.03,8.21-111.53-6.07-50.05-13.36-84.96-38.02-103.78-53.58Z"/>
      </g>
    </g>
  </g>
</svg>